<?xml version="1.0" standalone="no"?><!DOCTYPE svg PUBLIC "-//W3C//DTD SVG 1.1//EN" "http://www.w3.org/Graphics/SVG/1.1/DTD/svg11.dtd"><svg t="1708402887799" class="icon" viewBox="0 0 1024 1024" version="1.1" xmlns="http://www.w3.org/2000/svg" p-id="1298" xmlns:xlink="http://www.w3.org/1999/xlink" width="64" height="64"><path d="M676.85 928.37a2075.91 2075.91 0 0 1-330.62 0 277.58 277.58 0 0 1-254.6-254.59 2075.91 2075.91 0 0 1 0-330.62 277.58 277.58 0 0 1 254.6-254.6 2075.91 2075.91 0 0 1 330.62 0 277.58 277.58 0 0 1 254.59 254.6 2075.91 2075.91 0 0 1 0 330.62 277.57 277.57 0 0 1-254.59 254.59z" fill="#468EF7" p-id="1299"></path><path d="M511.58 820.28a272.14 272.14 0 0 1-42.95-3.48 72.51 72.51 0 0 1-58.5-50 0.75 0.75 0 0 0-0.05-0.16 60.92 60.92 0 0 0-57.89-42.79h-0.64a63.42 63.42 0 0 0-13.44 1.44 73.28 73.28 0 0 1-15.26 1.61 71.89 71.89 0 0 1-56.57-27.46l-0.1-0.13a315.8 315.8 0 0 1-42.58-73.65c0-0.11-0.09-0.21-0.13-0.32a72.59 72.59 0 0 1 14.25-75.71 62.27 62.27 0 0 0 0-83.07 72.61 72.61 0 0 1-14.25-75.72l0.06-0.16a295.82 295.82 0 0 1 42.76-73.95l0.16-0.2a73.72 73.72 0 0 1 57.37-27.24h0.18a73.38 73.38 0 0 1 15.12 1.58h0.18a61.33 61.33 0 0 0 71.92-41.52 72.48 72.48 0 0 1 58.6-50l0.46-0.06a338.78 338.78 0 0 1 41.72-2.64h0.21a358.93 358.93 0 0 1 42.71 2.58l0.52 0.07A72.46 72.46 0 0 1 614 249.36l0.06 0.2a58.8 58.8 0 0 0 27.67 34.36 1 1 0 0 1 0.17 0.1 62.49 62.49 0 0 0 30.84 8.28 61.32 61.32 0 0 0 13.26-1.47l0.2-0.05a73.17 73.17 0 0 1 15.12-1.58 70.7 70.7 0 0 1 56.78 27.69c0.14 0.17 0.27 0.36 0.4 0.54a394.66 394.66 0 0 1 41 73.94c0.07 0.15 0.13 0.31 0.19 0.47a72.57 72.57 0 0 1-14.25 75.71 62.25 62.25 0 0 0 0 83.07 72.62 72.62 0 0 1 14.24 75.71 0.88 0.88 0 0 1-0.05 0.15 293.24 293.24 0 0 1-42.78 74l-0.08 0.11a73.06 73.06 0 0 1-56.81 27.32 68 68 0 0 1-15-1.62 61.36 61.36 0 0 0-72 41.53 72.48 72.48 0 0 1-58.58 50.05c-0.35 0-0.7 0.1-1.05 0.13-12.63 1.12-27.43 2.28-41.75 2.28z m-68.07-64.06a37.75 37.75 0 0 0 30.47 26h0.16a237.59 237.59 0 0 0 37.46 3c12.7 0 26.28-1.06 38-2.11a37.73 37.73 0 0 0 30-26 96.34 96.34 0 0 1 112.91-65.09 32.09 32.09 0 0 0 7.28 0.78 38.14 38.14 0 0 0 29.62-14.23 258.43 258.43 0 0 0 37.6-65 37.84 37.84 0 0 0-7.49-39.42 1.07 1.07 0 0 1-0.14-0.16 97.2 97.2 0 0 1 0-129.93l0.14-0.16a37.82 37.82 0 0 0 7.55-39.26 359.48 359.48 0 0 0-37-66.82 35.47 35.47 0 0 0-28.42-13.68h-0.31a38.12 38.12 0 0 0-7.83 0.81 96.35 96.35 0 0 1-20.74 2.29 97.47 97.47 0 0 1-48.14-12.89 93.63 93.63 0 0 1-44-54.55 37.68 37.68 0 0 0-30.21-25.92 326.12 326.12 0 0 0-38.25-2.29 298.88 298.88 0 0 0-37.35 2.29 37.68 37.68 0 0 0-30.27 26A96.37 96.37 0 0 1 331.75 325a36.67 36.67 0 0 0-7.88-0.81 38.9 38.9 0 0 0-30.21 14.26 260.93 260.93 0 0 0-37.57 65 37.83 37.83 0 0 0 7.49 39.41l0.15 0.16a97.22 97.22 0 0 1 0 129.93l-0.15 0.15a37.86 37.86 0 0 0-7.52 39.35 280.92 280.92 0 0 0 37.75 65.25 37 37 0 0 0 29.09 14.09 38.46 38.46 0 0 0 7.89-0.83 98 98 0 0 1 20.69-2.22 95.54 95.54 0 0 1 92 67.41zM783.28 620z" fill="#FFFFFF" p-id="1300"></path><path d="M511.54 644.81c-75.19 0-136.35-61.16-136.35-136.34s61.16-136.35 136.35-136.35 136.34 61.16 136.34 136.35-61.16 136.34-136.34 136.34z m0-237.69a101.35 101.35 0 1 0 101.34 101.35 101.46 101.46 0 0 0-101.34-101.35z" fill="#FFFFFF" p-id="1301"></path></svg>