<?xml version="1.0" standalone="no"?><!DOCTYPE svg PUBLIC "-//W3C//DTD SVG 1.1//EN" "http://www.w3.org/Graphics/SVG/1.1/DTD/svg11.dtd"><svg t="1708403047242" class="icon" viewBox="0 0 1024 1024" version="1.1" xmlns="http://www.w3.org/2000/svg" p-id="1904" xmlns:xlink="http://www.w3.org/1999/xlink" width="64" height="64"><path d="M676.88 928.46a2075.91 2075.91 0 0 1-330.62 0 277.6 277.6 0 0 1-254.6-254.6 2075.91 2075.91 0 0 1 0-330.62 277.6 277.6 0 0 1 254.6-254.6 2075.91 2075.91 0 0 1 330.62 0 277.6 277.6 0 0 1 254.6 254.6 2075.91 2075.91 0 0 1 0 330.62 277.6 277.6 0 0 1-254.6 254.6z" fill="#D156EF" p-id="1905"></path><path d="M617.84 767.16h-209a60 60 0 0 1-60-59.95v-17.6a60 60 0 0 1 60-60h209a60 60 0 0 1 59.95 60v17.6a60 60 0 0 1-59.95 59.95z m-209-102.5a25 25 0 0 0-25 25v17.6a25 25 0 0 0 25 24.95h209a25 25 0 0 0 24.95-24.95v-17.6a25 25 0 0 0-24.95-25zM617.84 582.5h-209a60 60 0 0 1-60-60V505a60 60 0 0 1 60-59.95h209A60 60 0 0 1 677.79 505v17.6a60 60 0 0 1-59.95 59.9zM408.85 480a25 25 0 0 0-25 24.95v17.6a25 25 0 0 0 25 25h209a25 25 0 0 0 24.95-25V505a25 25 0 0 0-24.96-25zM617.84 397.84h-209a60 60 0 0 1-60-59.95v-17.6a60 60 0 0 1 60-60h209a60 60 0 0 1 59.95 60v17.6a60 60 0 0 1-59.95 59.95z m-209-102.5a25 25 0 0 0-25 25v17.6a25 25 0 0 0 25 24.95h209a25 25 0 0 0 24.95-24.95v-17.6a25 25 0 0 0-24.95-25zM297 530h-16.64c-55.93 0-101.43-49.27-101.43-109.83s45.5-109.82 101.43-109.82H297a17.5 17.5 0 0 1 0 35h-16.64c-36.63 0-66.43 33.57-66.43 74.82S243.73 495 280.36 495H297a17.5 17.5 0 0 1 0 35zM745.07 715.06h-16.62a17.5 17.5 0 0 1 0-35h16.62c36.63 0 66.43-33.66 66.43-75s-29.8-75-66.43-75h-16.62a17.5 17.5 0 0 1 0-35h16.62C801 495 846.5 544.35 846.5 605S801 715.06 745.07 715.06z" fill="#FFFFFF" p-id="1906"></path></svg>