<?xml version="1.0" standalone="no"?><!DOCTYPE svg PUBLIC "-//W3C//DTD SVG 1.1//EN" "http://www.w3.org/Graphics/SVG/1.1/DTD/svg11.dtd"><svg t="1708403052682" class="icon" viewBox="0 0 1024 1024" version="1.1" xmlns="http://www.w3.org/2000/svg" p-id="2055" xmlns:xlink="http://www.w3.org/1999/xlink" width="64" height="64"><path d="M676.88 927.46a2075.91 2075.91 0 0 1-330.62 0 277.6 277.6 0 0 1-254.6-254.6 2075.91 2075.91 0 0 1 0-330.62 277.6 277.6 0 0 1 254.6-254.6 2075.91 2075.91 0 0 1 330.62 0 277.6 277.6 0 0 1 254.6 254.6 2075.91 2075.91 0 0 1 0 330.62 277.6 277.6 0 0 1-254.6 254.6z" fill="#F43D3D" p-id="2056"></path><path d="M681.78 242.1a92.47 92.47 0 0 1 65.78 27.43l0.05 0.05a92.6 92.6 0 0 1 27.39 65 89.5 89.5 0 0 1-26 63.82c-16.55 16.54-41.48 28.77-74.09 36.34-28.84 6.7-56.72 8.1-75 8.1-9.84 0-16-0.42-16.46-0.45-0.65-0.05-1.19-0.08-1.84-0.09-2.57-0.06-4.69-0.67-5.69-1.63s-1.7-3.31-1.81-6.22v-0.3a385.55 385.55 0 0 1 4.26-66.62c6.86-45.56 20.81-80 40.33-99.48a88.57 88.57 0 0 1 63.1-26m0-35a123.67 123.67 0 0 0-87.85 36.22c-60.78 60.78-54.8 192.44-54.8 192.44 0.93 25.46 18.47 41 41.66 41.55 0 0 7.23 0.55 19.11 0.55 38.3 0 125-5.78 173.88-54.7a123.94 123.94 0 0 0 36.2-88.87A128.68 128.68 0 0 0 681.78 207.1zM361.83 242.1a88.57 88.57 0 0 1 63.1 26c19.33 19.33 33.22 53.31 40.15 98.26a391.83 391.83 0 0 1 4.44 67.84v0.3c-0.1 2.91-0.78 5.23-1.8 6.22s-3.12 1.57-5.69 1.63c-0.65 0-1.2 0-1.85 0.09-0.44 0-6.63 0.45-16.45 0.45-18.32 0-46.2-1.4-75-8.1-32.61-7.57-57.53-19.8-74.08-36.35a89.43 89.43 0 0 1-26-63.82 92.59 92.59 0 0 1 27.39-65l0.05-0.05a92.47 92.47 0 0 1 65.78-27.43m0-35a128.7 128.7 0 0 0-128.26 127.1 124 124 0 0 0 36.22 88.92c48.91 48.91 135.57 54.7 173.88 54.7 11.88 0 19.11-0.55 19.11-0.55 23.19-0.54 40.72-16.09 41.66-41.55 0 0 6-131.66-54.8-192.44a123.68 123.68 0 0 0-87.85-36.22zM599.9 547.06c18.32 0 46.2 1.41 75.05 8.11 32.61 7.57 57.53 19.8 74.08 36.34a89.51 89.51 0 0 1 26 63.83 92.59 92.59 0 0 1-27.39 65h-0.05a92.47 92.47 0 0 1-65.78 27.43 88.57 88.57 0 0 1-63.1-26c-19.33-19.34-33.22-53.31-40.15-98.26a391.83 391.83 0 0 1-4.44-67.84v-0.3c0.11-2.91 0.79-5.23 1.81-6.22s3.12-1.57 5.69-1.63c0.65 0 1.2 0 1.85-0.09 0.44 0 6.63-0.46 16.45-0.46m0-35c-11.88 0-19.11 0.56-19.11 0.56-23.19 0.54-40.73 16.09-41.66 41.55 0 0-6 131.66 54.8 192.44a123.68 123.68 0 0 0 87.85 36.22A128.68 128.68 0 0 0 810 655.69a124 124 0 0 0-36.21-88.93c-48.91-48.9-135.58-54.7-173.88-54.7zM443.71 547.06c9.84 0 16 0.43 16.46 0.46 0.65 0.05 1.19 0.08 1.84 0.09 2.57 0.06 4.69 0.67 5.69 1.63s1.7 3.31 1.8 6.22a2.09 2.09 0 0 1 0 0.25 390.3 390.3 0 0 1-4.43 67.89c-6.93 44.95-20.82 78.92-40.15 98.26a88.57 88.57 0 0 1-63.1 26 92.47 92.47 0 0 1-65.78-27.43h-0.05a92.6 92.6 0 0 1-27.39-65 89.46 89.46 0 0 1 26-63.82c16.55-16.54 41.48-28.77 74.09-36.35 28.84-6.69 56.72-8.1 75-8.1m0-35c-38.3 0-125 5.79-173.88 54.7a124 124 0 0 0-36.22 88.93 128.7 128.7 0 0 0 128.24 127.04 123.68 123.68 0 0 0 87.85-36.22c60.77-60.78 54.8-192.44 54.8-192.44-0.94-25.46-18.47-41-41.66-41.55 0 0-7.23-0.56-19.11-0.56z" fill="#FFFFFF" p-id="2057"></path><path d="M708.55 381.27a17.5 17.5 0 0 1-12.37-29.87 20 20 0 0 0 5.8-14.28 21.33 21.33 0 0 0-21-21 19.94 19.94 0 0 0-14.3 5.81 17.5 17.5 0 0 1-24.75-24.75 54.45 54.45 0 0 1 39.34-16.05A56.31 56.31 0 0 1 737 336.77a55.22 55.22 0 0 1-16.05 39.38 17.44 17.44 0 0 1-12.4 5.12z" fill="#FFFFFF" p-id="2058"></path></svg>