<?xml version="1.0" standalone="no"?><!DOCTYPE svg PUBLIC "-//W3C//DTD SVG 1.1//EN" "http://www.w3.org/Graphics/SVG/1.1/DTD/svg11.dtd"><svg t="1708402967360" class="icon" viewBox="0 0 1024 1024" version="1.1" xmlns="http://www.w3.org/2000/svg" p-id="1448" xmlns:xlink="http://www.w3.org/1999/xlink" width="64" height="64"><path d="M675.19 929.52a2075.78 2075.78 0 0 1-330.61 0A277.57 277.57 0 0 1 90 674.93a2075.91 2075.91 0 0 1 0-330.62 277.58 277.58 0 0 1 254.57-254.6 2075.78 2075.78 0 0 1 330.61 0 277.58 277.58 0 0 1 254.6 254.6 2075.91 2075.91 0 0 1 0 330.62 277.58 277.58 0 0 1-254.59 254.59z" fill="#468EF7" p-id="1449"></path><path d="M510.39 706.33c-51.43 0-101.6-2.28-141.25-6.41-59.58-6.2-75.72-14.27-81.33-17.67C272.45 675 262 659.28 261 641.81c-1-18 7.81-34.28 23.65-43.43l8.12-4.68a29.39 29.39 0 0 0 14.64-25.37V443.69a198.86 198.86 0 0 1 136.13-188.95 8.57 8.57 0 0 0 5.58-5.37 61.8 61.8 0 0 1 117.67-0.52 9 9 0 0 0 5.74 5.89 198.86 198.86 0 0 1 136.16 189v123a28 28 0 0 0 13.95 24.16l13.14 7.58a46.46 46.46 0 0 1 23.7 42.22 47.54 47.54 0 0 1-24.81 40.61c-5.39 3.64-21 12.12-81.21 18.52-39.96 4.17-90.77 6.5-143.07 6.5zM508 241.23a26.68 26.68 0 0 0-25.55 18.7 43.62 43.62 0 0 1-27.89 28 163.92 163.92 0 0 0-112.18 155.76v124.64A64.48 64.48 0 0 1 310.24 624l-8.12 4.69a11.45 11.45 0 0 0-6.2 11.1c0.21 3.71 2.2 8.8 7.12 10.93a17.33 17.33 0 0 1 2.37 1.26c12.37 7.8 86.07 19.34 205 19.34 125.24 0 195.35-12.63 205.05-19.39a18.94 18.94 0 0 1 2.41-1.44 12.68 12.68 0 0 0 6.64-11 11.46 11.46 0 0 0-6.21-10.77l-13.14-7.59a63.07 63.07 0 0 1-31.45-54.47V443.69a163.92 163.92 0 0 0-112.24-155.75 44.3 44.3 0 0 1-28-28.24A26.72 26.72 0 0 0 508 241.23zM510.2 817.27a124 124 0 0 1-110.59-67.36 17.5 17.5 0 1 1 31.09-16.07 89.47 89.47 0 0 0 159 0 17.5 17.5 0 1 1 31.09 16.08 124.07 124.07 0 0 1-110.59 67.35z" fill="#FFFFFF" p-id="1450"></path></svg>