<?xml version="1.0" standalone="no"?><!DOCTYPE svg PUBLIC "-//W3C//DTD SVG 1.1//EN" "http://www.w3.org/Graphics/SVG/1.1/DTD/svg11.dtd"><svg t="1708402827331" class="icon" viewBox="0 0 1024 1024" version="1.1" xmlns="http://www.w3.org/2000/svg" p-id="1145" xmlns:xlink="http://www.w3.org/1999/xlink" width="64" height="64"><path d="M676.88 928.46a2075.91 2075.91 0 0 1-330.62 0 277.6 277.6 0 0 1-254.6-254.6 2075.91 2075.91 0 0 1 0-330.62 277.6 277.6 0 0 1 254.6-254.6 2075.91 2075.91 0 0 1 330.62 0 277.6 277.6 0 0 1 254.6 254.6 2075.91 2075.91 0 0 1 0 330.62 277.6 277.6 0 0 1-254.6 254.6z" fill="#FFAB31" p-id="1146"></path><path d="M708.65 602.64a17.5 17.5 0 0 1-17.5-17.5v-39.06a35.46 35.46 0 0 0-35.42-35.42H368.3a35.44 35.44 0 0 0-35.4 35.4v39.08a17.5 17.5 0 0 1-35 0v-39.08a70.48 70.48 0 0 1 70.4-70.4h287.43a70.5 70.5 0 0 1 70.42 70.42v39.06a17.49 17.49 0 0 1-17.5 17.5z" fill="#FFFFFF" p-id="1147"></path><path d="M512 506a17.5 17.5 0 0 1-17.5-17.5v-80.68a17.5 17.5 0 1 1 35 0v80.64A17.51 17.51 0 0 1 512 506zM361.66 788.12h-97.21a60 60 0 0 1-59.95-60V631a60 60 0 0 1 59.95-60h97.21a60 60 0 0 1 59.95 60v97.22a60 60 0 0 1-59.95 59.9zM264.45 606a25 25 0 0 0-24.95 25v97.22a25 25 0 0 0 24.95 25h97.21a25 25 0 0 0 24.95-25V631a25 25 0 0 0-24.95-25zM757.55 788.12h-97.21a60 60 0 0 1-60-60V631a60 60 0 0 1 60-59.94h97.21a60 60 0 0 1 60 59.94v97.22a60 60 0 0 1-60 59.9zM660.34 606a25 25 0 0 0-25 24.94v97.22a25 25 0 0 0 25 25h97.21a25 25 0 0 0 25-25V631a25 25 0 0 0-25-24.94z" fill="#FFFFFF" p-id="1148"></path><path d="M560.64 425h-97.22a60 60 0 0 1-59.95-59.94v-97.23a60 60 0 0 1 59.95-59.95h97.22a60 60 0 0 1 59.94 59.95v97.22A60 60 0 0 1 560.64 425z m-97.22-182.12a25 25 0 0 0-24.95 24.95v97.22A25 25 0 0 0 463.42 390h97.22a25 25 0 0 0 24.94-24.94v-97.23a25 25 0 0 0-24.94-24.95z" fill="#FFFFFF" p-id="1149"></path></svg>