<?xml version="1.0" standalone="no"?><!DOCTYPE svg PUBLIC "-//W3C//DTD SVG 1.1//EN" "http://www.w3.org/Graphics/SVG/1.1/DTD/svg11.dtd"><svg t="1708403026158" class="icon" viewBox="0 0 1024 1024" version="1.1" xmlns="http://www.w3.org/2000/svg" p-id="1752" xmlns:xlink="http://www.w3.org/1999/xlink" width="64" height="64"><path d="M676.88 928.46a2075.91 2075.91 0 0 1-330.62 0 277.6 277.6 0 0 1-254.6-254.6 2075.91 2075.91 0 0 1 0-330.62 277.6 277.6 0 0 1 254.6-254.6 2075.91 2075.91 0 0 1 330.62 0 277.6 277.6 0 0 1 254.6 254.6 2075.91 2075.91 0 0 1 0 330.62 277.6 277.6 0 0 1-254.6 254.6z" fill="#F76E39" p-id="1753"></path><path d="M739.88 660.1H289a75.77 75.77 0 0 1-75.68-75.69V340.18A75.77 75.77 0 0 1 289 264.5h450.88a75.77 75.77 0 0 1 75.69 75.68v244.23a75.77 75.77 0 0 1-75.69 75.69zM289 299.5a40.73 40.73 0 0 0-40.68 40.68v244.23A40.73 40.73 0 0 0 289 625.1h450.88a40.73 40.73 0 0 0 40.69-40.69V340.18a40.73 40.73 0 0 0-40.69-40.68zM699.6 760.71H329.29a17.5 17.5 0 1 1 0-35H699.6a17.5 17.5 0 0 1 0 35z" fill="#FFFFFF" p-id="1754"></path><path d="M514.45 753.13a17.5 17.5 0 0 1-17.5-17.5v-86.46a17.5 17.5 0 1 1 35 0v86.46a17.51 17.51 0 0 1-17.5 17.5zM620.51 573.09H408.39A66.63 66.63 0 1 1 418 440.53a111.23 111.23 0 0 1 218.54 1.26 66.63 66.63 0 0 1-16 131.3z m0.47-35z m-211.73 0h211.47a31.62 31.62 0 0 0-0.07-63.24 17.51 17.51 0 0 1-17.41-16.67 76.2 76.2 0 0 0-152.3 3.72v1.91a17.5 17.5 0 0 1-26.45 15.46 31.62 31.62 0 1 0-16.34 58.82h1.08z" fill="#FFFFFF" p-id="1755"></path></svg>